<svg width="40" height="40" viewBox="0 0 40 40" fill="none" xmlns="http://www.w3.org/2000/svg">
<g clip-path="url(#clip0_1964_1740)">
<path d="M19.9053 22.8692C26.2391 22.8692 31.3736 17.7355 31.3736 11.4029C31.3736 5.07018 26.2391 -0.0634765 19.9053 -0.0634765C13.5715 -0.0634764 8.43701 5.07018 8.43701 11.4029C8.43701 17.7355 13.5715 22.8692 19.9053 22.8692Z" fill="#036C70"/>
<path d="M29.4674 32.4616C35.3179 32.4616 40.0607 27.7196 40.0607 21.8701C40.0607 16.0206 35.3179 11.2786 29.4674 11.2786C23.6168 11.2786 18.874 16.0206 18.874 21.8701C18.874 27.7196 23.6168 32.4616 29.4674 32.4616Z" fill="#1A9BA1"/>
<path d="M21.4054 40.0225C25.8926 40.0225 29.5301 36.3855 29.5301 31.8992C29.5301 27.4128 25.8926 23.7759 21.4054 23.7759C16.9183 23.7759 13.2808 27.4128 13.2808 31.8992C13.2808 36.3855 16.9183 40.0225 21.4054 40.0225Z" fill="#37C6D0"/>
<path d="M18.593 30.3678L2.03117 30.3678C0.937465 30.3678 0.0312503 29.4617 0.0312503 28.3682L0.03125 12.0591C0.03125 10.9656 0.937465 10.0596 2.03117 10.0596L18.593 10.0596C19.6867 10.0596 20.5929 10.9656 20.5929 12.0591L20.5929 28.3682C20.5929 29.4617 19.718 30.3678 18.593 30.3678Z" fill="#04878B"/>
<path d="M6.96824 23.7132C7.62447 24.0881 8.65568 24.4318 9.71814 24.4318C11.0306 24.4318 11.7806 23.8069 11.7806 22.9008C11.7806 22.0573 11.2181 21.5574 9.78063 21.0262C7.90571 20.3701 6.687 19.3703 6.687 17.7769C6.687 15.9335 8.24944 14.5588 10.7181 14.5588C11.9368 14.5588 12.843 14.84 13.4367 15.1212L12.9368 16.7771C12.5305 16.5584 11.7493 16.246 10.6868 16.246C9.3744 16.246 8.81192 16.9333 8.81192 17.5895C8.81192 18.4643 9.46815 18.8392 10.9993 19.4328C12.968 20.1827 13.9055 21.1512 13.9055 22.7446C13.9055 24.5567 12.5305 26.0877 9.59314 26.0877C8.37444 26.0877 7.12449 25.744 6.49951 25.4003L6.96824 23.7132Z" fill="white"/>
<path d="M20.5925 11.8716L20.5925 28.3681C20.5925 29.4616 19.6863 30.3677 18.5926 30.3677L13.374 30.3677L13.3115 32.1486L20.3113 32.1486C21.405 32.1486 22.3112 31.2425 22.3112 30.149L22.3112 13.8399C22.2799 12.8401 21.5612 12.0278 20.5925 11.8716Z" fill="black" fill-opacity="0.12549"/>
</g>
<defs>
<clipPath id="clip0_1964_1740">
<rect width="39.9953" height="39.9947" fill="white"/>
</clipPath>
</defs>
</svg>